{"title":"A Night At The Roxbury - 1998 (Dvdrip,Xvid)....Rojo","uid":6088685,"size":1050225450,"categoryP":"video","categoryS":"movies","magnet":"?xt=urn:btih:7827001e3df49ac62c353b4ae1f41e59128e3cec&amp;dn=A+Night+At+The+Roxbury+-+1998+%28Dvdrip%2CXvid%29....Rojo&amp;tr=udp%3A%2F%2Ftracker.openbittorrent.com%3A80&amp;tr=udp%3A%2F%2Fopen.demonii.com%3A1337&amp;tr=udp%3A%2F%2Ftracker.coppersurfer.tk%3A6969&amp;tr=udp%3A%2F%2Fexodus.desync.com%3A6969","seeders":25,"leechers":5,"uploader":"neon","files":-1,"time":1294450517,"description":"Wearing rayon suits, Speedo trunks, hair gel and cologne, wealthy Yemenite-American brothers Steve (Will Ferrell) and Doug Butabi (Chris Kattan) enjoy frequenting nightclubs, where they bob their heads in unison to dance music (specifically Haddaway's hit song &quot;What Is Love&quot;) and fail miserably at picking up women. Their dream is to party at the Roxbury, a fabled nightclub where they are continually denied entrance by a hulking bouncer (Michael Clarke Duncan).\n\n\n\nWill Ferrell as Steve Butabi\nChris Kattan as Doug Butabi\nLoni Anderson as Barbara Butabi\nDan Hedaya as Kamehl Butabi\nMolly Shannon as Emily Sanderson\nDwayne Hickman as Fred Sanderson\n &lt;a href=&quot;\nhttp://www.imdb.com/title/tt0120770/&quot; rel=&quot;nofollow&quot; target=&quot;_NEW&quot;&gt;\nhttp://www.imdb.com/title/tt0120770/&lt;/a&gt;\n &lt;a href=&quot;\nhttp://img534.imageshack.us/img534/675/76427847.png&quot; rel=&quot;nofollow&quot; target=&quot;_NEW&quot;&gt;\nhttp://img534.imageshack.us/img534/675/76427847.png&lt;/a&gt; &lt;a href=&quot;\nhttp://img709.imageshack.us/img709/7272/82933135.png&quot; rel=&quot;nofollow&quot; target=&quot;_NEW&quot;&gt;\nhttp://img709.imageshack.us/img709/7272/82933135.png&lt;/a&gt; &lt;a href=&quot;\nhttp://img193.imageshack.us/img193/3926/51362723.png&quot; rel=&quot;nofollow&quot; target=&quot;_NEW&quot;&gt;\nhttp://img193.imageshack.us/img193/3926/51362723.png&lt;/a&gt;\n &lt;a href=&quot;\nhttp://www.videodetective.com/movie_trailer/A_NIGHT_AT_THE_ROXBURY/trailer/P00007968.htm&quot; rel=&quot;nofollow&quot; target=&quot;_NEW&quot;&gt;\nhttp://www.videodetective.com/movie_trailer/A_NIGHT_AT_THE_ROXBURY/trailer/P00007968.htm&lt;/a&gt;\n\nGeneral\nComplete name : A Night At The Roxbury -1998 (Dvdrip)\\NIGHT_AT_THE_ROXBURY.avi\nFormat : AVI\nFormat/Info : Audio Video Interleave\nFile size : 1 000 MiB\nDuration : 1h 18mn\nOverall bit rate : 1 779 Kbps\nWriting application : VirtualDubMod 1.5.4.1 (build 2178/release)\nWriting library : VirtualDubMod build 2178/release\n\nVideo\nID : 0\nFormat : MPEG-4 Visual\nFormat profile : Advanced Simple@L5\nFormat settings, BVOP : Yes\nFormat settings, QPel : No\nFormat settings, GMC : No warppoints\nFormat settings, Matrix : Default (H.263)\nMuxing mode : Packed bitstream\nCodec ID : XVID\nCodec ID/Hint : XviD\nDuration : 1h 18mn\nBit rate : 1 324 Kbps\nWidth : 704 pixels\nHeight : 400 pixels\nDisplay aspect ratio : 16:9\nFrame rate : 25.000 fps\nColor space : YUV\nChroma subsampling : 4:2:0\nBit depth : 8 bits\nScan type : Progressive\nBits/(Pixel*Frame) : 0.188\nStream size : 744 MiB (74%)\nWriting library : XviD 1.2.1 (UTC 2008-12-04)\n\nAudio\nID : 1\nFormat : AC-3\nFormat/Info : Audio Coding 3\nMode extension : CM (complete main)\nCodec ID : 2000\nDuration : 1h 18mn\nBit rate mode : Constant\nBit rate : 448 Kbps\nChannel(s) : 6 channels\nChannel positions : Front: L C R, Side: L R, LFE\nSampling rate : 48.0 KHz\nBit depth : 16 bits\nStream size : 252 MiB (25%)\nAlignment : Split accross interleaves\nInterleave, duration : 80 ms (2.00 video frames)\nInterleave, preload duration : 500 ms\nLanguage : English\n\nAll thanks to rojo :)\n &lt;a href=&quot;\nhttp://www.metacafe.com/watch/4200423/a_night_at_the_roxbury_movie_trailer/&quot; rel=&quot;nofollow&quot; target=&quot;_NEW&quot;&gt;\nhttp://www.metacafe.com/watch/4200423/a_night_at_the_roxbury_movie_trailer/&lt;/a&gt;","torrent":{"xt":"urn:btih:7827001e3df49ac62c353b4ae1f41e59128e3cec","amp;dn":"A+Night+At+The+Roxbury+-+1998+%28Dvdrip%2CXvid%29....Rojo","amp;tr":["udp%3A%2F%2Ftracker.openbittorrent.com%3A80","udp%3A%2F%2Fopen.demonii.com%3A1337","udp%3A%2F%2Ftracker.coppersurfer.tk%3A6969","udp%3A%2F%2Fexodus.desync.com%3A6969"],"infoHash":"7827001e3df49ac62c353b4ae1f41e59128e3cec","infoHashBuffer":{"type":"Buffer","data":[120,39,0,30,61,244,154,198,44,53,59,74,225,244,30,89,18,142,60,236]},"announce":[],"urlList":[]}}